<?xml version="1.0" encoding="utf-8"?>
<!-- Generator: Adobe Illustrator 18.1.1, SVG Export Plug-In . SVG Version: 6.00 Build 0)  -->
<svg version="1.1" id="Layer_1" xmlns="http://www.w3.org/2000/svg" xmlns:xlink="http://www.w3.org/1999/xlink" x="0px" y="0px"
	 viewBox="0 0 61.9 72.2" enable-background="new 0 0 61.9 72.2" xml:space="preserve">
<g>
	<path fill="#B7B7B7" d="M59.1,15.3c0.8,0.8,1.4,1.8,1.9,3.1c0.5,1.3,0.8,2.5,0.8,3.5v46.4c0,1.1-0.4,2-1.1,2.7
		c-0.8,0.8-1.7,1.1-2.7,1.1H3.9c-1.1,0-2-0.4-2.7-1.1C0.4,70.3,0,69.4,0,68.3V3.9c0-1.1,0.4-2,1.1-2.7C1.9,0.4,2.8,0,3.9,0H40
		c1.1,0,2.3,0.3,3.5,0.8c1.3,0.5,2.3,1.2,3.1,1.9L59.1,15.3z M56.7,67V25.8H40c-1.1,0-2-0.4-2.7-1.1c-0.8-0.8-1.1-1.7-1.1-2.7V5.2
		H5.2V67H56.7z M23.5,39c-1.5,1.5-3.3,2.3-5.5,2.3s-4-0.8-5.5-2.3c-1.5-1.5-2.3-3.3-2.3-5.5s0.8-4,2.3-5.5c1.5-1.5,3.3-2.3,5.5-2.3
		s4,0.8,5.5,2.3c1.5,1.5,2.3,3.3,2.3,5.5S25,37.5,23.5,39z M51.6,49v12.9H10.3v-7.7l7.7-7.7l5.2,5.2l15.5-15.5L51.6,49z M41.3,5.5
		v15.1h15.1c-0.3-0.8-0.6-1.3-0.9-1.7L42.9,6.4C42.6,6,42,5.7,41.3,5.5z"/>
</g>
</svg>
